<svg width="13" height="6" viewBox="0 0 13 6" fill="none" xmlns="http://www.w3.org/2000/svg">
<path d="M1.07706 3.38876C0.93634 3.62636 1.01488 3.93305 1.25248 4.07377C1.49007 4.21448 1.79676 4.13595 1.93748 3.89835L1.07706 3.38876ZM2.21652 1.4648L1.07706 3.38876L1.93748 3.89835L3.07694 1.97439L2.21652 1.4648Z" fill="#957139"/>
<path d="M2.00012 1C5.00012 3 9.00012 3 12.0001 1" stroke="#957139" stroke-linecap="round"/>
<path d="M3.67518 4.7114C3.63082 4.98396 3.81581 5.24087 4.08837 5.28522C4.36092 5.32958 4.61783 5.14459 4.66219 4.87203L3.67518 4.7114ZM4.12951 1.9197L3.67518 4.7114L4.66219 4.87203L5.11652 2.08033L4.12951 1.9197Z" fill="#957139"/>
<path d="M5.99988 5.00009C5.99986 5.27623 6.2237 5.5001 6.49985 5.50012C6.77599 5.50014 6.99986 5.2763 6.99988 5.00015L5.99988 5.00009ZM6.00004 2.50003L5.99988 5.00009L6.99988 5.00015L7.00004 2.5001L6.00004 2.50003Z" fill="#957139"/>
<path d="M9.00971 5.09807C9.06388 5.36885 9.32729 5.54445 9.59807 5.49029C9.86885 5.43612 10.0445 5.17271 9.99029 4.90193L9.00971 5.09807ZM8.50965 2.59811L9.00971 5.09807L9.99029 4.90193L9.49023 2.40197L8.50965 2.59811Z" fill="#957139"/>
<path d="M11.5902 4.28658C11.7484 4.51291 12.0601 4.56814 12.2865 4.40993C12.5128 4.25172 12.568 3.93999 12.4098 3.71366L11.5902 4.28658ZM10.1922 2.28658L11.5902 4.28658L12.4098 3.71366L11.0118 1.71365L10.1922 2.28658Z" fill="#957139"/>
</svg>
